<?xml version="1.0" encoding="UTF-8" ?>
<svg version="1.1" width="400" height="400" xmlns="http://www.w3.org/2000/svg" shape-rendering="crispEdges">
<rect x="0" y="0" width="400" height="16" fill="#886B45" />
<rect x="0" y="16" width="16" height="176" fill="#886B45" />
<rect x="16" y="16" width="368" height="32" fill="#FFFBED" />
<rect x="384" y="16" width="16" height="176" fill="#886B45" />
<rect x="16" y="48" width="368" height="32" fill="#FFECC1" />
<rect x="16" y="80" width="64" height="112" fill="#FFECC1" />
<rect x="80" y="80" width="240" height="32" fill="#9DACC6" />
<rect x="320" y="80" width="64" height="112" fill="#FFECC1" />
<rect x="80" y="112" width="32" height="144" fill="#E8F0FF" />
<rect x="112" y="112" width="32" height="16" fill="#960000" />
<rect x="144" y="112" width="176" height="16" fill="#E8F0FF" />
<rect x="112" y="128" width="16" height="16" fill="#720000" />
<rect x="128" y="128" width="16" height="16" fill="#E20000" />
<rect x="144" y="128" width="16" height="16" fill="#960000" />
<rect x="160" y="128" width="160" height="16" fill="#E8F0FF" />
<rect x="112" y="144" width="16" height="112" fill="#E8F0FF" />
<rect x="128" y="144" width="16" height="16" fill="#960000" />
<rect x="144" y="144" width="32" height="16" fill="#E20000" />
<rect x="176" y="144" width="144" height="16" fill="#E8F0FF" />
<rect x="128" y="160" width="16" height="96" fill="#E8F0FF" />
<rect x="144" y="160" width="32" height="16" fill="#960000" />
<rect x="176" y="160" width="16" height="16" fill="#E20000" />
<rect x="192" y="160" width="128" height="16" fill="#E8F0FF" />
<rect x="144" y="176" width="16" height="80" fill="#E8F0FF" />
<rect x="160" y="176" width="16" height="16" fill="#720000" />
<rect x="176" y="176" width="32" height="16" fill="#960000" />
<rect x="208" y="176" width="112" height="16" fill="#E8F0FF" />
<rect x="0" y="192" width="16" height="208" fill="#5A402E" />
<rect x="16" y="192" width="64" height="160" fill="#F7CB8D" />
<rect x="160" y="192" width="16" height="64" fill="#E8F0FF" />
<rect x="176" y="192" width="16" height="16" fill="#720000" />
<rect x="192" y="192" width="32" height="16" fill="#960000" />
<rect x="224" y="192" width="48" height="16" fill="#E20000" />
<rect x="272" y="192" width="16" height="32" fill="#960000" />
<rect x="288" y="192" width="16" height="32" fill="#720000" />
<rect x="304" y="192" width="16" height="64" fill="#E8F0FF" />
<rect x="320" y="192" width="64" height="160" fill="#F7CB8D" />
<rect x="384" y="192" width="16" height="208" fill="#5A402E" />
<rect x="176" y="208" width="16" height="48" fill="#E8F0FF" />
<rect x="192" y="208" width="16" height="16" fill="#720000" />
<rect x="208" y="208" width="16" height="16" fill="#960000" />
<rect x="224" y="208" width="16" height="16" fill="#E20000" />
<rect x="240" y="208" width="32" height="16" fill="#960000" />
<rect x="192" y="224" width="112" height="32" fill="#E8F0FF" />
<rect x="80" y="256" width="240" height="16" fill="#C8D4EA" />
<rect x="80" y="272" width="208" height="16" fill="#C8D4EA" />
<rect x="288" y="272" width="16" height="32" fill="#E8F0FF" />
<rect x="304" y="272" width="16" height="48" fill="#C8D4EA" />
<rect x="80" y="288" width="128" height="32" fill="#C8D4EA" />
<rect x="208" y="288" width="80" height="16" fill="#E8F0FF" />
<rect x="208" y="304" width="96" height="16" fill="#C8D4EA" />
<rect x="80" y="320" width="240" height="32" fill="#F7CB8D" />
<rect x="16" y="352" width="368" height="32" fill="#886B45" />
<rect x="16" y="384" width="368" height="16" fill="#5A402E" />
</svg>